<svg width="99" height="99" viewBox="0 0 99 99" fill="none" xmlns="http://www.w3.org/2000/svg">
<circle cx="49.5" cy="49.5" r="49.5" fill="#618B9B" fill-opacity="0.3"/>
<path fill-rule="evenodd" clip-rule="evenodd" d="M35 41.6667C35.9205 41.6667 36.6667 42.4129 36.6667 43.3333V63.3333H63.3333V43.3333C63.3333 42.4129 64.0795 41.6667 65 41.6667C65.9205 41.6667 66.6667 42.4129 66.6667 43.3333V65C66.6667 65.9205 65.9205 66.6667 65 66.6667H35C34.0795 66.6667 33.3333 65.9205 33.3333 65V43.3333C33.3333 42.4129 34.0795 41.6667 35 41.6667Z" fill="white"/>
<path fill-rule="evenodd" clip-rule="evenodd" d="M30 35C30 34.0795 30.7462 33.3333 31.6667 33.3333H68.3333C69.2538 33.3333 70 34.0795 70 35V43.3333C70 44.2538 69.2538 45 68.3333 45H31.6667C30.7462 45 30 44.2538 30 43.3333V35ZM33.3333 36.6667V41.6667H66.6667V36.6667H33.3333Z" fill="white"/>
<path fill-rule="evenodd" clip-rule="evenodd" d="M45 50C45 49.0795 45.7462 48.3333 46.6667 48.3333H53.3333C54.2538 48.3333 55 49.0795 55 50C55 50.9205 54.2538 51.6667 53.3333 51.6667H46.6667C45.7462 51.6667 45 50.9205 45 50Z" fill="white"/>
</svg>
