<svg width="99" height="99" viewBox="0 0 99 99" fill="none" xmlns="http://www.w3.org/2000/svg">
<circle cx="49.5" cy="49.5" r="49.5" fill="#618B9B" fill-opacity="0.3"/>
<path fill-rule="evenodd" clip-rule="evenodd" d="M37.4408 55.7741C39.0036 54.2113 41.1232 53.3333 43.3333 53.3333H56.6667C58.8768 53.3333 60.9965 54.2113 62.5592 55.7741C64.122 57.3368 65 59.4565 65 61.6666V65C65 65.9205 64.2538 66.6666 63.3333 66.6666C62.4128 66.6666 61.6667 65.9205 61.6667 65V61.6666C61.6667 60.3406 61.1398 59.0688 60.2022 58.1311C59.2645 57.1935 57.9927 56.6666 56.6667 56.6666H43.3333C42.0072 56.6666 40.7355 57.1935 39.7978 58.1311C38.8601 59.0688 38.3333 60.3406 38.3333 61.6666V65C38.3333 65.9205 37.5871 66.6666 36.6667 66.6666C35.7462 66.6666 35 65.9205 35 65V61.6666C35 59.4565 35.878 57.3368 37.4408 55.7741Z" fill="white"/>
<path fill-rule="evenodd" clip-rule="evenodd" d="M50.3333 36.3333C47.5718 36.3333 45.3333 38.5719 45.3333 41.3333C45.3333 44.0947 47.5718 46.3333 50.3333 46.3333C53.0948 46.3333 55.3333 44.0947 55.3333 41.3333C55.3333 38.5719 53.0948 36.3333 50.3333 36.3333ZM42 41.3333C42 36.731 45.731 33 50.3333 33C54.9357 33 58.6667 36.731 58.6667 41.3333C58.6667 45.9357 54.9357 49.6667 50.3333 49.6667C45.731 49.6667 42 45.9357 42 41.3333Z" fill="white"/>
</svg>
