<svg width="99" height="99" viewBox="0 0 99 99" fill="none" xmlns="http://www.w3.org/2000/svg">
<circle cx="49.5" cy="49.5" r="49.5" fill="#618B9B" fill-opacity="0.3"/>
<path fill-rule="evenodd" clip-rule="evenodd" d="M33.4408 54.7741C35.0036 53.2113 37.1232 52.3333 39.3333 52.3333H52.6667C54.8768 52.3333 56.9964 53.2113 58.5592 54.7741C60.122 56.3369 61 58.4565 61 60.6667V64C61 64.9205 60.2538 65.6667 59.3333 65.6667C58.4129 65.6667 57.6667 64.9205 57.6667 64V60.6667C57.6667 59.3406 57.1399 58.0688 56.2022 57.1311C55.2645 56.1935 53.9927 55.6667 52.6667 55.6667H39.3333C38.0073 55.6667 36.7355 56.1935 35.7978 57.1311C34.8601 58.0688 34.3333 59.3406 34.3333 60.6667V64C34.3333 64.9205 33.5871 65.6667 32.6667 65.6667C31.7462 65.6667 31 64.9205 31 64V60.6667C31 58.4565 31.878 56.3369 33.4408 54.7741Z" fill="white"/>
<path fill-rule="evenodd" clip-rule="evenodd" d="M46 35.6667C43.2386 35.6667 41 37.9052 41 40.6667C41 43.4281 43.2386 45.6667 46 45.6667C48.7614 45.6667 51 43.4281 51 40.6667C51 37.9052 48.7614 35.6667 46 35.6667ZM37.6667 40.6667C37.6667 36.0643 41.3976 32.3333 46 32.3333C50.6024 32.3333 54.3333 36.0643 54.3333 40.6667C54.3333 45.269 50.6024 49 46 49C41.3976 49 37.6667 45.269 37.6667 40.6667Z" fill="white"/>
<path fill-rule="evenodd" clip-rule="evenodd" d="M62.7196 53.8C62.9497 52.9087 63.8588 52.3728 64.75 52.6029C66.5378 53.0645 68.1216 54.1068 69.2528 55.5661C70.3841 57.0254 70.9986 58.819 71 60.6654L71 64C71 64.9205 70.2538 65.6667 69.3333 65.6667C68.4129 65.6667 67.6667 64.9205 67.6667 64L67.6667 60.6679C67.6667 60.6677 67.6667 60.6681 67.6667 60.6679C67.6657 59.5602 67.297 58.4837 66.6184 57.6083C65.9396 56.7327 64.9893 56.1074 63.9167 55.8304C63.0254 55.6003 62.4895 54.6912 62.7196 53.8Z" fill="white"/>
<path fill-rule="evenodd" clip-rule="evenodd" d="M56.0521 33.8033C56.2804 32.9116 57.1884 32.3738 58.0801 32.6021C59.8726 33.061 61.4614 34.1035 62.596 35.5652C63.7306 37.0269 64.3464 38.8246 64.3464 40.675C64.3464 42.5253 63.7306 44.3231 62.596 45.7848C61.4614 47.2464 59.8726 48.2889 58.0801 48.7479C57.1884 48.9762 56.2804 48.4384 56.0521 47.5467C55.8238 46.655 56.3616 45.7471 57.2533 45.5187C58.3288 45.2434 59.2821 44.6179 59.9628 43.7409C60.6436 42.8638 61.0131 41.7852 61.0131 40.675C61.0131 39.5648 60.6436 38.4861 59.9628 37.6091C59.2821 36.7321 58.3288 36.1066 57.2533 35.8312C56.3616 35.6029 55.8238 34.695 56.0521 33.8033Z" fill="white"/>
</svg>
